<svg xmlns="http://www.w3.org/2000/svg" width="1088" height="159" viewBox="0 0 1088 159" fill="none"><path d="M75.0257 77.5665C77.8767 77.5665 80.6635 76.7215 83.034 75.1387C85.4045 73.5558 87.2521 71.3063 88.3431 68.6741C89.4341 66.0419 89.7196 63.1454 89.1634 60.3511C88.6072 57.5568 87.2344 54.9899 85.2184 52.9753C83.2025 50.9607 80.634 49.5887 77.8378 49.0329C75.0417 48.4771 72.1434 48.7623 69.5094 49.8526C66.8755 50.9429 64.6242 52.7892 63.0403 55.1581C61.4564 57.527 60.611 60.3123 60.611 63.1614C60.611 66.9818 62.1297 70.6459 64.833 73.3474C67.5362 76.0489 71.2027 77.5665 75.0257 77.5665Z" fill="#94C11F"></path><path d="M155.635 77.5665C158.485 77.5665 161.272 76.7215 163.643 75.1387C166.013 73.5558 167.861 71.3063 168.952 68.6741C170.043 66.0419 170.328 63.1454 169.772 60.3511C169.216 57.5568 167.843 54.9899 165.827 52.9753C163.811 50.9607 161.243 49.5887 158.447 49.0329C155.65 48.4771 152.752 48.7623 150.118 49.8526C147.484 50.9429 145.233 52.7892 143.649 55.1581C142.065 57.527 141.22 60.3123 141.22 63.1614C141.22 66.9818 142.739 70.6459 145.442 73.3474C148.145 76.0489 151.812 77.5665 155.635 77.5665Z" fill="#94C11F"></path><path fill-rule="evenodd" clip-rule="evenodd" d="M142.886 125.915H179.751C207.812 125.915 230.635 97.9208 230.635 63.4925C230.635 29.0643 207.812 1.07031 179.751 1.07031H50.8358C22.7752 1.07031 0 29.0643 0 63.4925C0 97.9208 22.7752 125.915 50.8358 125.915H87.7421L115.314 159L142.886 125.915ZM24.0245 63.4925C24.0245 42.7011 36.4211 25.0789 50.8358 25.0789H179.751C194.31 25.0789 206.61 42.6531 206.61 63.4925C206.61 84.3319 194.166 101.906 179.751 101.906H50.8358C36.277 101.906 24.0245 84.2839 24.0245 63.4925Z" fill="url(#paint0_linear_41_79)"></path><path d="M297.905 4.9053L332.003 104.686H333.379L367.477 4.9053H387.457L343.369 127.418H322.013L277.925 4.9053H297.905Z" fill="#32393E"></path><path d="M403.713 127.418V35.5335H421.599V127.418H403.713ZM412.746 21.356C409.635 21.356 406.963 20.3191 404.73 18.2453C402.536 16.1317 401.44 13.6192 401.44 10.7079C401.44 7.75676 402.536 5.24429 404.73 3.1705C406.963 1.05683 409.635 0 412.746 0C415.857 0 418.509 1.05683 420.702 3.1705C422.935 5.24429 424.052 7.75676 424.052 10.7079C424.052 13.6192 422.935 16.1317 420.702 18.2453C418.509 20.3191 415.857 21.356 412.746 21.356Z" fill="#32393E"></path><path d="M514.516 57.9663L498.305 60.8377C497.627 58.7639 496.55 56.7899 495.074 54.9155C493.639 53.0411 491.684 51.5057 489.212 50.3093C486.739 49.1129 483.648 48.5146 479.94 48.5146C474.875 48.5146 470.647 49.6512 467.258 51.9244C463.868 54.1577 462.173 57.0491 462.173 60.5984C462.173 63.6692 463.309 66.1418 465.583 68.0162C467.856 69.8906 471.525 71.426 476.59 72.6224L491.186 75.9724C499.641 77.9265 505.942 80.9375 510.089 85.0053C514.237 89.0731 516.311 94.3573 516.311 100.858C516.311 106.361 514.715 111.267 511.525 115.574C508.374 119.841 503.968 123.191 498.305 125.624C492.681 128.056 486.161 129.273 478.743 129.273C468.454 129.273 460.059 127.079 453.559 122.692C447.058 118.266 443.07 111.984 441.594 103.849L458.883 101.217C459.959 105.723 462.173 109.133 465.523 111.446C468.873 113.719 473.24 114.856 478.623 114.856C484.486 114.856 489.172 113.64 492.681 111.207C496.191 108.734 497.946 105.723 497.946 102.174C497.946 99.3025 496.869 96.8897 494.715 94.9356C492.602 92.9814 489.351 91.5058 484.964 90.5088L469.411 87.099C460.837 85.1449 454.496 82.0342 450.388 77.767C446.32 73.4998 444.286 68.096 444.286 61.5556C444.286 56.1318 445.802 51.386 448.833 47.3182C451.864 43.2504 456.051 40.0799 461.395 37.8067C466.739 35.4937 472.861 34.3371 479.76 34.3371C489.69 34.3371 497.507 36.4907 503.21 40.7978C508.913 45.065 512.681 50.7878 514.516 57.9663Z" fill="#32393E"></path><path d="M535.977 127.418V35.5335H553.863V127.418H535.977ZM545.01 21.356C541.899 21.356 539.227 20.3191 536.994 18.2453C534.8 16.1317 533.703 13.6192 533.703 10.7079C533.703 7.75676 534.8 5.24429 536.994 3.1705C539.227 1.05683 541.899 0 545.01 0C548.12 0 550.772 1.05683 552.966 3.1705C555.199 5.24429 556.316 7.75676 556.316 10.7079C556.316 13.6192 555.199 16.1317 552.966 18.2453C550.772 20.3191 548.12 21.356 545.01 21.356Z" fill="#32393E"></path><path d="M616.63 129.273C608.016 129.273 600.498 127.299 594.078 123.35C587.657 119.402 582.672 113.879 579.122 106.78C575.573 99.6813 573.798 91.3862 573.798 81.8946C573.798 72.3632 575.573 64.0282 579.122 56.8896C582.672 49.7509 587.657 44.2076 594.078 40.2594C600.498 36.3112 608.016 34.3371 616.63 34.3371C625.244 34.3371 632.762 36.3112 639.182 40.2594C645.603 44.2076 650.588 49.7509 654.138 56.8896C657.687 64.0282 659.462 72.3632 659.462 81.8946C659.462 91.3862 657.687 99.6813 654.138 106.78C650.588 113.879 645.603 119.402 639.182 123.35C632.762 127.299 625.244 129.273 616.63 129.273ZM616.69 114.258C622.273 114.258 626.899 112.782 630.568 109.831C634.237 106.88 636.949 102.952 638.704 98.0463C640.498 93.141 641.396 87.7371 641.396 81.8348C641.396 75.9724 640.498 70.5885 638.704 65.6832C636.949 60.738 634.237 56.7699 630.568 53.7789C626.899 50.7878 622.273 49.2923 616.69 49.2923C611.067 49.2923 606.401 50.7878 602.692 53.7789C599.023 56.7699 596.291 60.738 594.496 65.6832C592.742 70.5885 591.864 75.9724 591.864 81.8348C591.864 87.7371 592.742 93.141 594.496 98.0463C596.291 102.952 599.023 106.88 602.692 109.831C606.401 112.782 611.067 114.258 616.69 114.258Z" fill="#32393E"></path><path d="M697.313 72.8617V127.418H679.427V35.5335H696.595V50.4887H697.732C699.846 45.6233 703.156 41.715 707.662 38.7638C712.209 35.8127 717.931 34.3371 724.831 34.3371C731.092 34.3371 736.576 35.6532 741.282 38.2853C745.987 40.8775 749.636 44.7459 752.229 49.8905C754.821 55.0351 756.117 61.3961 756.117 68.9734V127.418H738.231V71.1269C738.231 64.4668 736.496 59.2624 733.026 55.5137C729.557 51.725 724.791 49.8307 718.729 49.8307C714.582 49.8307 710.893 50.728 707.662 52.5226C704.472 54.3173 701.939 56.9494 700.065 60.419C698.231 63.8487 697.313 67.9963 697.313 72.8617Z" fill="#32393E"></path><path d="M806.845 129.452C801.023 129.452 795.758 128.375 791.052 126.222C786.347 124.028 782.618 120.858 779.866 116.71C777.154 112.563 775.798 107.478 775.798 101.456C775.798 96.2716 776.795 92.0043 778.789 88.6544C780.783 85.3044 783.475 82.6524 786.865 80.6982C790.255 78.7441 794.043 77.2685 798.231 76.2715C802.418 75.2745 806.686 74.5167 811.033 73.9983C816.536 73.3602 821.003 72.8418 824.432 72.4429C827.862 72.0043 830.355 71.3064 831.91 70.3492C833.465 69.3921 834.243 67.8368 834.243 65.6832V65.2645C834.243 60.0401 832.767 55.9922 829.816 53.1208C826.905 50.2495 822.558 48.8137 816.775 48.8137C810.753 48.8137 806.008 50.1497 802.538 52.8217C799.108 55.4538 796.735 58.3851 795.419 61.6154L778.61 57.7869C780.604 52.2036 783.515 47.6971 787.344 44.2674C791.212 40.7978 795.659 38.2853 800.684 36.7299C805.708 35.1347 810.993 34.3371 816.536 34.3371C820.205 34.3371 824.093 34.7758 828.201 35.6532C832.349 36.4907 836.217 38.046 839.806 40.3192C843.435 42.5924 846.407 45.8426 848.72 50.07C851.033 54.2574 852.189 59.7011 852.189 66.4011V127.418H834.722V114.856H834.004C832.847 117.169 831.112 119.442 828.799 121.675C826.486 123.909 823.515 125.763 819.886 127.239C816.257 128.714 811.91 129.452 806.845 129.452ZM810.733 115.095C815.679 115.095 819.906 114.118 823.415 112.164C826.965 110.21 829.657 107.657 831.491 104.507C833.366 101.316 834.303 97.9067 834.303 94.2775V82.433C833.665 83.0711 832.428 83.6693 830.594 84.2277C828.799 84.7461 826.745 85.2047 824.432 85.6035C822.119 85.9624 819.866 86.3014 817.673 86.6205C815.479 86.8996 813.645 87.1389 812.169 87.3383C808.7 87.777 805.529 88.5148 802.658 89.5517C799.826 90.5886 797.553 92.0841 795.838 94.0383C794.163 95.9525 793.326 98.5049 793.326 101.695C793.326 106.122 794.961 109.472 798.231 111.745C801.501 113.979 805.669 115.095 810.733 115.095Z" fill="#32393E"></path><path d="M876.013 127.418V35.5335H893.899V127.418H876.013ZM885.046 21.356C881.935 21.356 879.263 20.3191 877.03 18.2453C874.836 16.1317 873.74 13.6192 873.74 10.7079C873.74 7.75676 874.836 5.24429 877.03 3.1705C879.263 1.05683 881.935 0 885.046 0C888.156 0 890.809 1.05683 893.002 3.1705C895.235 5.24429 896.352 7.75676 896.352 10.7079C896.352 13.6192 895.235 16.1317 893.002 18.2453C890.809 20.3191 888.156 21.356 885.046 21.356Z" fill="#32393E"></path><path d="M916.048 127.418V115.155L965.819 51.9244V51.0869H917.663V35.5335H988.132V48.5745L940.275 111.027V111.865H989.807V127.418H916.048Z" fill="#32393E"></path><path d="M1047.88 129.273C1038.83 129.273 1031.03 127.338 1024.49 123.47C1017.99 119.562 1012.96 114.078 1009.41 107.019C1005.9 99.9206 1004.15 91.6055 1004.15 82.0741C1004.15 72.6623 1005.9 64.3671 1009.41 57.1886C1012.96 50.0102 1017.91 44.407 1024.25 40.379C1030.63 36.3511 1038.09 34.3371 1046.62 34.3371C1051.81 34.3371 1056.83 35.1946 1061.7 36.9094C1066.56 38.6243 1070.93 41.3162 1074.8 44.9852C1078.67 48.6542 1081.72 53.4199 1083.95 59.2824C1086.18 65.1049 1087.3 72.1837 1087.3 80.5188V86.8598H1014.26V73.4599H1069.77C1069.77 68.754 1068.82 64.5865 1066.9 60.9574C1064.99 57.2884 1062.29 54.397 1058.83 52.2834C1055.4 50.1697 1051.37 49.1129 1046.74 49.1129C1041.72 49.1129 1037.33 50.3491 1033.58 52.8217C1029.87 55.2544 1027 58.4449 1024.97 62.3931C1022.97 66.3014 1021.98 70.5486 1021.98 75.1349V85.6035C1021.98 91.7451 1023.05 96.9695 1025.21 101.277C1027.4 105.584 1030.45 108.874 1034.36 111.147C1038.27 113.38 1042.83 114.497 1048.06 114.497C1051.45 114.497 1054.54 114.018 1057.33 113.061C1060.12 112.064 1062.53 110.589 1064.57 108.635C1066.6 106.68 1068.16 104.268 1069.23 101.396L1086.16 104.447C1084.81 109.432 1082.37 113.799 1078.87 117.548C1075.4 121.257 1071.03 124.148 1065.76 126.222C1060.54 128.256 1054.58 129.273 1047.88 129.273Z" fill="#32393E"></path><defs><linearGradient id="paint0_linear_41_79" x1="19.8652" y1="15.4728" x2="202.626" y2="119.764" gradientUnits="userSpaceOnUse"><stop stop-color="#94C11F"></stop><stop offset="1" stop-color="#078ED1"></stop></linearGradient></defs></svg>